<?xml version="1.0" encoding="UTF-8"?>
<!DOCTYPE svg PUBLIC "-//W3C//DTD SVG 1.1//EN" "http://www.w3.org/Graphics/SVG/1.1/DTD/svg11.dtd">
<!-- Creator: CorelDRAW 2021 (64 Bit) -->
<svg xmlns="http://www.w3.org/2000/svg" xml:space="preserve" width="50mm" height="6.011mm" version="1.1" style="shape-rendering:geometricPrecision; text-rendering:geometricPrecision; image-rendering:optimizeQuality; fill-rule:evenodd; clip-rule:evenodd"
viewBox="0 0 5000 601.1"
 xmlns:xlink="http://www.w3.org/1999/xlink"
 xmlns:xodm="http://www.corel.com/coreldraw/odm/2003">
 <defs>
  <style type="text/css">
   <![CDATA[
    .fil0 {fill:white;fill-rule:nonzero}
   ]]>
  </style>
 </defs>
 <g id="Camada_x0020_1">
  <metadata id="CorelCorpID_0Corel-Layer"/>
  <path class="fil0" d="M480.28 294.4c35.48,13.17 62.96,32.35 82.43,57.54 19.46,25.18 29.19,55.53 29.19,91.01 0,52.67 -21.76,93.46 -65.26,122.37 -43.5,28.91 -106.48,43.37 -188.91,43.37l-338.33 0 0 -601.09 321.15 0c80.15,0 140.69,14.31 181.62,42.93 40.93,28.63 61.39,66.69 61.39,114.21 0,28.05 -7.01,53.24 -21.03,75.57 -14.03,22.32 -34.78,40.35 -62.25,54.09zm4140.43 -129.66l-176.03 0 0 -157.14 554.72 0 0 157.14 -176.04 0 0 443.95 -202.65 0 0 -443.95zm-228.41 -157.14l0 601.09 -166.59 0 -228.42 -273.07 0 273.07 -197.49 0 0 -601.09 166.58 0 228.42 273.06 0 -273.06 197.5 0zm-978.06 601.09c-92.16,0 -164.01,-24.36 -215.53,-73.05 -51.52,-48.69 -77.28,-116.97 -77.28,-204.84l0 -323.2 202.65 0 0 317.32c0,43.1 7.88,74.43 23.62,94.03 15.74,19.58 38.5,29.38 68.26,29.38 29.77,0 52.53,-9.8 68.27,-29.38 15.74,-19.6 23.61,-50.93 23.61,-94.03l0 -317.32 199.22 0 0 323.2c0,87.87 -25.76,156.15 -77.28,204.84 -51.52,48.69 -123.37,73.05 -215.54,73.05zm-385.55 -601.09l0 601.09 -202.65 0 0 -221.55 -187.2 0 0 221.55 -199.22 0 0 -148.55 -45.51 -50.67 -150.27 199.22 -234.43 0 252.46 -336.61 -240.44 -264.48 220.69 0 197.5 218.11 0 -218.11 199.22 0 0 212.96 187.2 0 0 -212.96 202.65 0zm-1322.19 601.09c-64.69,0 -122.8,-12.87 -174.32,-38.6 -51.52,-25.73 -91.88,-61.46 -121.08,-107.17 -29.19,-45.71 -43.79,-97.3 -43.79,-154.77 0,-57.49 14.6,-109.08 43.79,-154.79 29.2,-45.71 69.56,-81.43 121.08,-107.16 51.52,-25.73 109.63,-38.6 174.32,-38.6 64.69,0 122.79,12.87 174.31,38.6 51.52,25.73 91.89,61.45 121.08,107.16 29.2,45.71 43.79,97.3 43.79,154.79 0,57.47 -14.59,109.06 -43.79,154.77 -29.19,45.71 -69.56,81.44 -121.08,107.17 -51.52,25.73 -109.62,38.6 -174.31,38.6zm0 -156.85c25.18,0 47.94,-5.88 68.27,-17.65 20.32,-11.77 36.49,-28.47 48.52,-50.09 12.01,-21.62 18.03,-46.95 18.03,-75.95 0,-29.02 -6.02,-54.34 -18.03,-75.97 -12.03,-21.62 -28.2,-38.31 -48.52,-50.09 -20.33,-11.76 -43.09,-17.65 -68.27,-17.65 -25.19,0 -47.94,5.89 -68.27,17.65 -20.32,11.78 -36.5,28.47 -48.52,50.09 -12.01,21.63 -18.03,46.95 -18.03,75.97 0,29 6.02,54.33 18.03,75.95 12.02,21.62 28.2,38.32 48.52,50.09 20.33,11.77 43.08,17.65 68.27,17.65zm-728.18 156.85c-64.69,0 -122.8,-12.87 -174.32,-38.6 -51.52,-25.73 -91.88,-61.46 -121.08,-107.17 -29.19,-45.71 -43.79,-97.3 -43.79,-154.77 0,-57.49 14.6,-109.08 43.79,-154.79 29.2,-45.71 69.56,-81.43 121.08,-107.16 51.52,-25.73 109.63,-38.6 174.32,-38.6 64.69,0 122.79,12.87 174.31,38.6 51.52,25.73 91.89,61.45 121.08,107.16 29.2,45.71 43.79,97.3 43.79,154.79 0,57.47 -14.59,109.06 -43.79,154.77 -29.19,45.71 -69.56,81.44 -121.08,107.17 -51.52,25.73 -109.62,38.6 -174.31,38.6zm0 -156.85c25.18,0 47.94,-5.88 68.27,-17.65 20.32,-11.77 36.49,-28.47 48.52,-50.09 12.01,-21.62 18.03,-46.95 18.03,-75.95 0,-29.02 -6.02,-54.34 -18.03,-75.97 -12.03,-21.62 -28.2,-38.31 -48.52,-50.09 -20.33,-11.76 -43.09,-17.65 -68.27,-17.65 -25.19,0 -47.94,5.89 -68.27,17.65 -20.32,11.78 -36.5,28.47 -48.51,50.09 -12.02,21.63 -18.04,46.95 -18.04,75.97 0,29 6.02,54.33 18.04,75.95 12.01,21.62 28.19,38.32 48.51,50.09 20.33,11.77 43.08,17.65 68.27,17.65zm-779.7 -302.56l0 89.31 94.45 0c44.08,0 66.12,-14.89 66.12,-44.65 0,-29.77 -22.04,-44.66 -66.12,-44.66l-94.45 0zm121.93 317.72c44.65,0 66.99,-15.74 66.99,-47.23 0,-31.48 -22.34,-47.22 -66.99,-47.22l-121.93 0 0 94.45 121.93 0z"/>
 </g>
</svg>
